<?xml version="1.0" encoding="iso-8859-1"?>
<!-- Generator: Adobe Illustrator 16.0.0, SVG Export Plug-In . SVG Version: 6.00 Build 0)  -->
<!DOCTYPE svg PUBLIC "-//W3C//DTD SVG 1.1//EN" "http://www.w3.org/Graphics/SVG/1.1/DTD/svg11.dtd">
<svg version="1.1" id="Capa_1" xmlns="http://www.w3.org/2000/svg" xmlns:xlink="http://www.w3.org/1999/xlink" x="0px" y="0px"
	 width="97.75px" height="97.75px" viewBox="0 0 97.75 97.75" style="enable-background:new 0 0 97.75 97.75;" xml:space="preserve"
	>
<g>
	<g>
		<path d="M39.337,38.729c0-4.611-3.137-4.611-3.137-4.611h-1.661H23.294v9.894H35.4C37.492,44.011,39.337,43.342,39.337,38.729z"/>
		<path d="M36.201,50.846H23.294v11.85h12.311c1.852-0.053,5.27-0.633,5.27-5.76C40.875,50.784,36.201,50.846,36.201,50.846z"/>
		<path d="M69.243,44.011c-6.849,0-7.804,6.835-7.804,6.835h14.565C76.005,50.846,76.092,44.011,69.243,44.011z"/>
		<path d="M48.875,0C21.882,0,0,21.883,0,48.875S21.882,97.75,48.875,97.75S97.75,75.867,97.75,48.875S75.868,0,48.875,0z
			 M59.531,28.848h18.294v5.46H59.531V28.848z M50.285,57.486c0,13.533-14.084,13.088-14.084,13.088H23.294h-0.379h-9.787V26.236
			h9.787h0.379H36.2c7.012,0,12.547,3.871,12.547,11.805c0,7.935-6.766,8.438-6.766,8.438C50.9,46.479,50.285,57.486,50.285,57.486z
			 M69.33,64.479c7.37,0,7.109-4.77,7.109-4.77h7.803c0,12.659-15.172,11.792-15.172,11.792c-18.207,0-17.036-16.95-17.036-16.95
			S52.02,37.517,69.068,37.517c17.947,0,15.434,19.245,15.434,19.245H61.527C61.527,65.001,69.33,64.479,69.33,64.479z"/>
	</g>
</g>
<g>
</g>
<g>
</g>
<g>
</g>
<g>
</g>
<g>
</g>
<g>
</g>
<g>
</g>
<g>
</g>
<g>
</g>
<g>
</g>
<g>
</g>
<g>
</g>
<g>
</g>
<g>
</g>
<g>
</g>
</svg>
