<svg id="Layer_1" data-name="Layer 1" xmlns="http://www.w3.org/2000/svg" viewBox="0 0 339.48 125.09"><defs><style>.cls-1{fill:#fff;}.cls-2{fill:#66c9cf;stroke:#67c9cf;stroke-width:1.89px;}.cls-2,.cls-5{stroke-miterlimit:10;}.cls-3,.cls-6{fill:#2a3891;}.cls-11,.cls-4{fill:#cb1f42;}.cls-5{fill:#3dbbec;stroke:#fff;stroke-width:1.18px;}.cls-11,.cls-6{font-size:46px;font-family:HelveticaNowDisplay-Bold, Helvetica Now Display;font-weight:700;}.cls-7{letter-spacing:-0.05em;}.cls-8{letter-spacing:-0.01em;}.cls-9{letter-spacing:-0.11em;}.cls-10{letter-spacing:-0.05em;}.cls-12{letter-spacing:-0.01em;}.cls-13{letter-spacing:-0.02em;}.cls-14{letter-spacing:-0.01em;}</style></defs><title>CVT</title><path class="cls-1" d="M84.75,39.53l-4.21,4.21A39.06,39.06,0,0,0,64.35,27.28l4.19-4.2A44.71,44.71,0,0,1,84.75,39.53Z"/><path class="cls-2" d="M72.19,62v.25a26.12,26.12,0,1,1-18-24.81l-4.7,4.69a20.41,20.41,0,1,0,17,20.12V62Z"/><path class="cls-3" d="M90.47,59a44,44,0,0,0-5.71-19.47A44.82,44.82,0,0,0,68.55,23.08,44.26,44.26,0,0,0,46.72,17h-.64a44.47,44.47,0,0,0-38.93,66c.1.18.19.36.3.53a45.65,45.65,0,0,0,3.05,4.63c.47.63.92,1.23,1.31,1.81l29.54,31.68a5.72,5.72,0,0,0,9.45,0L80.34,89.87c.39-.58.83-1.18,1.31-1.81a47.31,47.31,0,0,0,3-4.63,4,4,0,0,0,.3-.53A44.45,44.45,0,0,0,90.47,59ZM79.88,80.37h0l-.06.08a40.85,40.85,0,0,1-2.74,4.2c-.5.66-1,1.33-1.47,2L46.08,118.36,16.52,86.67c-.46-.69-1-1.36-1.46-2a40.85,40.85,0,0,1-2.74-4.2l-.06-.08h0A38.74,38.74,0,0,1,46.08,22.66h.56a38.3,38.3,0,0,1,17.71,4.62,39.14,39.14,0,0,1,16.2,16.46,38.64,38.64,0,0,1-.67,36.63Z"/><path class="cls-4" d="M78.26,19.6,60.67,37.19,45.54,52.33a3.54,3.54,0,0,0,0,5l1,1,3,3,1,1a3.55,3.55,0,0,0,5,0l4.62-4.62,5.23-5.23.76-.77,4.47-4.46,5.23-5.23L88.35,29.69Z"/><line class="cls-5" x1="71.92" y1="38.07" x2="75.94" y2="42.1"/><line class="cls-5" x1="56.45" y1="53.55" x2="60.47" y2="57.57"/><line class="cls-5" x1="66.76" y1="43.23" x2="70.79" y2="47.25"/><line class="cls-5" x1="61.6" y1="48.39" x2="65.63" y2="52.41"/><rect class="cls-4" x="43.48" y="58.98" width="6.72" height="4.28" transform="translate(-29.5 51.02) rotate(-45)"/><rect class="cls-4" x="73.07" y="19.17" width="25.01" height="6.41" rx="2.26" transform="translate(40.89 -53.96) rotate(45)"/><path class="cls-4" d="M92.13,22.47l7.56-7.56.81.81a2.66,2.66,0,0,0,3.74,0l.8-.8a2.66,2.66,0,0,0,0-3.74L96.75,2.91a2.66,2.66,0,0,0-3.73,0l-.8.8a2.66,2.66,0,0,0,0,3.73l.82.82-7.56,7.56"/><path class="cls-4" d="M48.63,59.32c-.63.8-1.29,1.57-1.94,2.35l-2.15,2.14-4.29,4.3L36,72.4l-2.15,2.14c-.78.65-1.55,1.31-2.35,1.95.64-.8,1.3-1.57,1.95-2.35L35.55,72l4.3-4.29,4.29-4.29,2.14-2.15C47.06,60.61,47.83,60,48.63,59.32Z"/><text class="cls-6" transform="translate(126.75 35.53)">C<tspan class="cls-7" x="33.35" y="0">O</tspan><tspan class="cls-8" x="66.47" y="0">V</tspan><tspan x="97.75" y="0">ID</tspan></text><text class="cls-6" transform="translate(126.75 79.79)"><tspan class="cls-9">V</tspan><tspan class="cls-10" x="26.31" y="0">A</tspan><tspan x="56.99" y="0">CCINE</tspan></text><text class="cls-11" transform="translate(126.75 124.05)"><tspan class="cls-12">T</tspan><tspan class="cls-13" x="28.43" y="0">R</tspan><tspan class="cls-10" x="58.28" y="0">A</tspan><tspan x="88.96" y="0">C</tspan><tspan class="cls-14" x="122.31" y="0">K</tspan><tspan x="154.01" y="0">ER</tspan></text></svg>