<?xml version="1.0" standalone="no"?>
<!DOCTYPE svg PUBLIC "-//W3C//DTD SVG 20010904//EN"
 "http://www.w3.org/TR/2001/REC-SVG-20010904/DTD/svg10.dtd">
<svg version="1.0" xmlns="http://www.w3.org/2000/svg"
 width="341.000000pt" height="126.000000pt" viewBox="0 0 341.000000 126.000000"
 preserveAspectRatio="xMidYMid meet">

<g transform="translate(0.000000,126.000000) scale(0.100000,-0.100000)"
fill="#000000" stroke="none">
<path d="M930 1215 c-7 -8 -9 -22 -6 -32 5 -11 -5 -28 -29 -53 l-35 -36 35
-34 35 -34 35 34 c22 21 45 34 62 35 46 0 41 31 -13 86 -52 52 -64 58 -84 34z"/>
<path d="M1375 1220 c-65 -27 -105 -123 -84 -206 38 -151 250 -163 294 -16 6
19 3 22 -24 22 -17 0 -31 -5 -31 -10 0 -6 -11 -22 -25 -35 -24 -25 -73 -33
-110 -19 -25 10 -45 59 -45 113 0 69 35 111 92 111 32 0 46 -6 68 -30 17 -18
38 -30 54 -30 25 0 26 1 13 33 -20 48 -69 77 -131 76 -28 0 -60 -4 -71 -9z"/>
<path d="M1703 1210 c-124 -75 -93 -280 46 -311 83 -19 157 20 187 96 31 83
-1 186 -70 219 -47 22 -123 21 -163 -4z m130 -42 c47 -24 65 -82 47 -147 -13
-50 -42 -71 -96 -71 -35 0 -47 5 -68 31 -21 25 -26 41 -26 86 0 47 4 59 29 84
32 31 75 38 114 17z"/>
<path d="M1950 1223 c0 -5 25 -79 57 -165 l58 -158 35 0 35 0 54 153 c30 83
56 158 59 165 3 8 -6 12 -26 12 -28 0 -31 -4 -65 -97 -19 -54 -38 -113 -42
-130 -3 -18 -10 -33 -14 -33 -3 0 -26 59 -49 130 -43 127 -44 130 -73 130 -16
0 -29 -3 -29 -7z"/>
<path d="M2280 1065 l0 -165 30 0 30 0 0 165 0 165 -30 0 -30 0 0 -165z"/>
<path d="M2400 1065 l0 -167 94 4 c103 4 134 17 166 71 27 44 27 140 0 184
-28 47 -72 65 -172 71 l-88 5 0 -168z m151 105 c48 -13 69 -47 69 -109 0 -73
-28 -103 -103 -109 l-57 -4 0 116 0 116 28 0 c15 0 43 -5 63 -10z"/>
<path d="M770 1097 c0 -13 5 -28 10 -33 7 -7 1 -19 -19 -38 l-28 -27 -59 30
c-243 123 -528 14 -622 -239 -30 -83 -36 -154 -19 -236 23 -107 55 -161 180
-296 204 -222 231 -248 254 -248 23 0 54 31 267 259 128 138 166 213 173 338
6 99 -10 177 -52 249 l-24 41 28 27 c25 24 31 26 49 15 24 -15 52 -6 52 18 0
27 -140 163 -167 163 -17 0 -23 -6 -23 -23z m-184 -92 c27 -8 60 -24 74 -34
l25 -20 -117 -119 c-65 -65 -118 -123 -118 -128 0 -5 5 -16 10 -24 6 -10 4
-20 -7 -32 -13 -15 -13 -20 -3 -33 11 -13 15 -14 29 -1 9 8 28 12 46 9 23 -3
36 1 54 21 23 24 23 27 8 44 -26 28 -20 39 6 14 l24 -22 18 20 c17 19 17 21 0
40 -24 26 -11 39 15 15 19 -17 21 -17 40 0 l20 18 -22 24 c-25 26 -14 32 14 6
17 -15 19 -15 38 2 l20 18 -22 24 c-12 13 -17 23 -11 23 6 0 16 -7 23 -15 7
-9 19 -14 27 -11 32 13 74 -102 75 -204 0 -86 -20 -154 -65 -220 -17 -25 -96
-114 -176 -199 l-146 -154 -50 55 c-27 31 -99 109 -159 174 -76 82 -118 138
-138 180 -118 252 66 543 343 544 41 0 98 -7 125 -15z"/>
<path d="M1280 773 c0 -5 25 -79 57 -165 l58 -158 35 0 35 0 54 153 c30 83 56
158 59 165 3 8 -6 12 -26 12 -28 0 -31 -4 -65 -97 -19 -54 -38 -113 -42 -130
-3 -18 -10 -33 -14 -33 -3 0 -26 59 -49 130 -43 127 -44 130 -73 130 -16 0
-29 -3 -29 -7z"/>
<path d="M1665 768 c-3 -7 -29 -78 -60 -158 -30 -79 -55 -148 -55 -152 0 -4
13 -8 29 -8 23 0 30 6 37 33 l10 32 76 3 76 3 12 -36 c10 -29 16 -35 41 -35
16 0 29 3 29 7 0 4 -28 78 -61 165 l-62 158 -34 0 c-18 0 -36 -6 -38 -12z m84
-180 c1 -15 -8 -18 -49 -18 -27 0 -50 2 -50 4 0 3 12 37 27 77 l27 72 22 -59
c13 -32 23 -67 23 -76z"/>
<path d="M1945 770 c-65 -27 -105 -123 -84 -206 38 -151 250 -163 294 -16 6
19 3 22 -24 22 -17 0 -31 -5 -31 -10 0 -6 -11 -22 -25 -35 -24 -25 -73 -33
-110 -19 -25 10 -45 59 -45 113 0 69 35 111 92 111 32 0 46 -6 68 -30 17 -18
38 -30 54 -30 25 0 26 1 13 33 -20 48 -69 77 -131 76 -28 0 -60 -4 -71 -9z"/>
<path d="M2285 770 c-65 -27 -105 -123 -84 -206 38 -151 250 -163 294 -16 6
19 3 22 -24 22 -17 0 -31 -5 -31 -10 0 -6 -11 -22 -25 -35 -24 -25 -73 -33
-110 -19 -25 10 -45 59 -45 113 0 69 35 111 92 111 32 0 46 -6 68 -30 17 -18
38 -30 54 -30 25 0 26 1 13 33 -20 48 -69 77 -131 76 -28 0 -60 -4 -71 -9z"/>
<path d="M2540 615 l0 -165 30 0 30 0 0 165 0 165 -30 0 -30 0 0 -165z"/>
<path d="M2660 616 l0 -166 32 0 31 0 -7 120 c-4 66 -5 120 -3 120 2 0 37 -54
77 -120 71 -114 76 -120 107 -120 l33 0 0 166 0 165 -27 -3 -28 -3 2 -118 c1
-66 -1 -116 -4 -113 -4 3 -38 57 -77 119 -65 101 -74 112 -104 115 l-32 3 0
-165z"/>
<path d="M2990 615 l0 -165 120 0 120 0 0 25 c0 25 -1 25 -90 25 l-90 0 0 45
0 45 80 0 c79 0 80 0 80 25 0 25 -1 25 -80 25 l-80 0 0 40 0 39 88 3 c85 3 87
3 87 28 l0 25 -117 3 -118 3 0 -166z"/>
<path d="M1280 310 c0 -29 1 -30 50 -30 l50 0 0 -135 0 -135 30 0 30 0 0 135
0 135 55 0 c54 0 55 0 55 30 l0 30 -135 0 -135 0 0 -30z"/>
<path d="M1590 176 l0 -166 30 0 30 0 0 65 0 66 56 -3 c64 -3 70 -9 79 -81 6
-44 8 -47 37 -47 27 0 30 3 24 23 -3 12 -6 39 -6 60 0 22 -7 44 -18 55 -18 18
-18 20 5 46 25 30 29 53 12 89 -18 39 -48 50 -151 55 l-98 5 0 -167z m185 94
c15 -16 17 -26 9 -48 -9 -25 -14 -27 -72 -30 l-62 -3 0 51 0 50 53 0 c41 0 58
-5 72 -20z"/>
<path d="M1979 313 c-5 -16 -32 -87 -59 -159 -28 -72 -50 -134 -50 -137 0 -4
13 -7 29 -7 23 0 30 6 37 33 l10 32 76 3 76 3 12 -36 c10 -29 16 -35 41 -35
16 0 29 3 29 7 0 3 -28 78 -62 165 l-61 158 -34 0 c-27 0 -35 -5 -44 -27z m69
-90 c11 -32 23 -66 27 -75 6 -16 1 -18 -49 -18 -31 0 -56 2 -56 3 0 3 33 103
45 135 8 21 12 14 33 -45z"/>
<path d="M2265 330 c-82 -34 -116 -174 -62 -261 21 -35 75 -61 125 -62 75 -1
127 35 147 101 6 19 3 22 -24 22 -17 0 -31 -5 -31 -10 0 -6 -11 -22 -25 -35
-24 -25 -73 -33 -110 -19 -25 10 -45 59 -45 113 0 69 35 111 92 111 32 0 46
-6 69 -31 20 -22 36 -29 54 -27 l25 3 -18 35 c-10 19 -34 43 -53 52 -35 19
-110 23 -144 8z"/>
<path d="M2530 175 l0 -165 30 0 c30 0 30 1 30 53 0 44 4 58 25 77 29 27 25
31 92 -72 33 -51 42 -58 71 -58 17 0 32 3 32 6 0 3 -27 44 -60 91 -33 48 -60
91 -60 97 0 6 28 39 62 73 l62 63 -34 0 c-30 0 -45 -11 -112 -77 l-78 -78 0
78 0 77 -30 0 -30 0 0 -165z"/>
<path d="M2840 175 l0 -165 120 0 120 0 0 25 c0 25 -1 25 -90 25 l-90 0 0 45
0 45 80 0 c79 0 80 0 80 25 0 25 -1 25 -80 25 l-80 0 0 40 0 39 88 3 c85 3 87
3 87 28 l0 25 -117 3 -118 3 0 -166z"/>
<path d="M3120 176 l0 -166 30 0 30 0 0 65 0 66 56 -3 c64 -3 70 -9 79 -81 6
-44 8 -47 37 -47 27 0 30 3 24 23 -3 12 -6 39 -6 60 0 22 -7 44 -18 55 -18 18
-18 20 5 46 25 30 29 53 12 89 -18 39 -48 50 -151 55 l-98 5 0 -167z m185 94
c15 -16 17 -26 9 -48 -9 -25 -14 -27 -72 -30 l-62 -3 0 51 0 50 53 0 c41 0 58
-5 72 -20z"/>
</g>
</svg>
